<svg width="137" height="137" viewBox="0 0 137 137" fill="none" xmlns="http://www.w3.org/2000/svg">
<path fill-rule="evenodd" clip-rule="evenodd" d="M43.7605 125.583H93.2325C112.585 125.583 125.583 112.008 125.583 91.8087V45.1912C125.583 24.9917 112.585 11.4166 93.2382 11.4166H43.7605C24.4133 11.4166 11.416 24.9917 11.416 45.1912V91.8087C11.416 112.008 24.4133 125.583 43.7605 125.583ZM48.5137 62.7916C40.6439 62.7916 34.2493 56.3884 34.2493 48.5208C34.2493 40.6532 40.6439 34.25 48.5137 34.25C56.3777 34.25 62.778 40.6532 62.778 48.5208C62.778 56.3884 56.3777 62.7916 48.5137 62.7916ZM113.143 85.2479C115.055 90.1492 114.062 96.0402 112.018 100.894C109.596 106.667 104.958 111.039 99.1142 112.947C96.5196 113.795 93.7988 114.167 91.0837 114.167H42.9754C38.1881 114.167 33.9518 113.018 30.479 110.879C28.3035 109.536 27.9189 106.438 29.5319 104.429C32.2298 101.071 34.8932 97.7014 37.5796 94.3023C42.6998 87.7987 46.1497 85.9136 49.9841 87.569C51.5397 88.2523 53.101 89.2774 54.7083 90.3613C58.9904 93.2714 64.943 97.2714 72.784 92.9297C78.1499 89.9245 81.2621 84.7695 83.9722 80.2804L84.0176 80.2053C84.2092 79.8911 84.3991 79.5769 84.5884 79.2636L84.5897 79.2614C85.5005 77.7543 86.3992 76.2674 87.4157 74.8975C88.6901 73.1833 93.4142 67.8225 99.5332 71.6398C103.431 74.0434 106.708 77.2952 110.216 80.7767C111.553 82.1081 112.506 83.622 113.143 85.2479Z" fill="#4F4F4F"/>
</svg>
