<svg width="628" height="507" viewBox="0 0 628 507" fill="none" xmlns="http://www.w3.org/2000/svg">
<g clip-path="url(#clip0_2_4)">
<path opacity="0.1" d="M323.047 507.006C479.785 507.006 606.846 393.509 606.846 253.503C606.846 113.497 479.785 0 323.047 0C166.308 0 39.2469 113.497 39.2469 253.503C39.2469 393.509 166.308 507.006 323.047 507.006Z" fill="#50C9C3"/>
<path opacity="0.1" d="M104.642 399.411C162.435 399.411 209.285 392.143 209.285 383.177C209.285 374.212 162.435 366.944 104.642 366.944C46.85 366.944 0 374.212 0 383.177C0 392.143 46.85 399.411 104.642 399.411Z" fill="#50C9C3"/>
<path opacity="0.1" d="M154.938 476.749C177.416 476.749 195.639 472.982 195.639 468.334C195.639 463.686 177.416 459.919 154.938 459.919C132.459 459.919 114.237 463.686 114.237 468.334C114.237 472.982 132.459 476.749 154.938 476.749Z" fill="#50C9C3"/>
<path opacity="0.1" d="M433.049 444.373C455.527 444.373 473.75 440.606 473.75 435.958C473.75 431.31 455.527 427.543 433.049 427.543C410.57 427.543 392.348 431.31 392.348 435.958C392.348 440.606 410.57 444.373 433.049 444.373Z" fill="#50C9C3"/>
<path opacity="0.1" d="M294.939 437.31C331.493 437.31 361.126 432.285 361.126 426.088C361.126 419.89 331.493 414.865 294.939 414.865C258.386 414.865 228.753 419.89 228.753 426.088C228.753 432.285 258.386 437.31 294.939 437.31Z" fill="#50C9C3"/>
<path opacity="0.1" d="M489.957 392.177C566.2 392.177 628.006 382.488 628.006 370.536C628.006 358.584 566.2 348.895 489.957 348.895C413.715 348.895 351.909 358.584 351.909 370.536C351.909 382.488 413.715 392.177 489.957 392.177Z" fill="#50C9C3"/>
<path d="M28.6124 332.765C25.5114 338.803 24.0631 345.555 24.4146 352.335C24.7662 359.115 26.9051 365.68 30.614 371.364C31.8307 373.191 32.9502 374.506 33.8445 374.853C38.1336 376.54 46.724 380.687 46.724 380.687L67.4091 372.552C67.4091 372.552 70.7674 354.772 73.9432 339.506C76.1091 329.094 78.2019 319.856 79.0597 318.237C81.2012 314.248 79.0597 270.827 79.0597 270.827C79.0597 270.827 58.3746 269.438 52.6862 285.398L50.1979 290.269L28.6124 332.765Z" fill="#A8A8A8"/>
<path opacity="0.1" d="M56.0749 337.564C68.6503 351.989 73.9554 339.512 73.9554 339.512C76.1212 329.1 78.2141 319.863 79.0719 318.243C81.2134 314.254 79.0719 270.833 79.0719 270.833C79.0719 270.833 58.3868 269.444 52.6984 285.404L50.2101 290.275C48.6161 303.044 47.0404 327.182 56.0749 337.564Z" fill="white"/>
<path d="M58.837 377.77L131.843 369.331L144.869 283.547L135.019 261.267C130.858 251.778 125.095 243.078 117.984 235.546C113.026 230.316 107.033 225.286 100.73 222.759C99.8691 222.412 98.9897 222.111 98.0961 221.858C97.0688 221.545 95.9824 221.48 94.9252 221.668C93.8681 221.855 92.87 222.289 92.0122 222.936C83.0081 229.323 79.7898 256.481 78.7494 269.554C78.3214 274.926 77.5963 280.27 76.5775 285.562L58.837 377.77Z" fill="#A8A8A8"/>
<path opacity="0.1" d="M107.441 282.621L92.2313 320.07C100.201 314.236 112.01 282.469 112.01 282.469L122.59 318.687L114.157 280.514C115.392 272.225 115.751 263.828 115.228 255.464C114.559 245.879 105.573 230.498 100.694 222.753C99.8326 222.405 98.9532 222.105 98.0596 221.852C97.0323 221.539 95.9459 221.474 94.8887 221.661C93.8316 221.849 92.8335 222.283 91.9757 222.929C95.8086 230.632 105.391 249.892 108.311 255.616C112.016 262.826 107.441 282.621 107.441 282.621Z" fill="white"/>
<path d="M119.858 380.687H159.47C161.099 380.687 162.712 380.356 164.209 379.713C165.707 379.07 167.058 378.129 168.181 376.948C169.304 375.766 170.175 374.368 170.741 372.838C171.307 371.309 171.556 369.681 171.474 368.052C170.597 351.051 168.377 320.739 163.096 301.498C160.243 291.116 156.927 285.666 153.885 282.981C152.459 281.603 150.617 280.736 148.647 280.514C147.152 280.385 145.657 280.749 144.388 281.55C137.033 288.607 128.442 325.745 128.442 325.745L119.858 380.687Z" fill="#A8A8A8"/>
<path opacity="0.1" d="M156.428 347.751C158.059 352.275 158.703 357.493 156.428 362.578L147.6 366.944C147.6 366.944 123.873 356.878 126.757 336.248C126.757 336.248 127.536 331.986 135.707 332.315C140.302 332.537 144.726 334.124 148.417 336.873C152.107 339.622 154.896 343.409 156.428 347.751V347.751Z" fill="white"/>
<path opacity="0.1" d="M146.998 293.521C146.724 286.287 150.648 283.778 153.891 282.981C152.465 281.603 150.623 280.736 148.653 280.514C146.396 282.405 144.796 284.963 144.084 287.821L135.81 328.186C135.81 328.186 147.461 305.644 146.998 293.521Z" fill="white"/>
<path d="M109.436 325.44L129.051 352.293L132.452 374.458L119.846 380.687L101.673 384.706C99.9232 385.095 98.1236 385.212 96.3379 385.053L46.7484 380.687L53.4953 365.032L76.7965 332.29L109.436 325.44Z" fill="#A8A8A8"/>
<path opacity="0.1" d="M101.844 316.221C101.844 316.221 115.228 317.141 110.203 340.158C105.178 363.175 53.471 365.02 53.471 365.02C53.471 365.02 64.4584 345.534 81.3594 331.572C83.2576 330.007 85.0888 328.375 86.8349 326.634C90.7225 322.743 98.1569 315.905 101.844 316.221Z" fill="white"/>
<path opacity="0.1" d="M113.884 333.575C113.884 333.575 132.02 350.095 130.31 375.517Z" fill="black"/>
<path opacity="0.1" d="M144.394 281.55C144.394 281.55 125.364 306.88 123.229 345.857Z" fill="black"/>
<path opacity="0.1" d="M79.078 270.814C79.078 270.814 88.2889 312.677 65.2919 344.231Z" fill="black"/>
<path d="M246.84 425.856H346.092C347.052 425.851 347.993 425.597 348.826 425.12C349.659 424.643 350.354 423.958 350.843 423.133C351.333 422.307 351.601 421.369 351.622 420.409C351.642 419.449 351.414 418.5 350.959 417.654L301.358 325.416C300.882 324.532 300.177 323.793 299.315 323.278C298.454 322.763 297.47 322.491 296.466 322.491C295.463 322.491 294.479 322.763 293.617 323.278C292.756 323.793 292.05 324.532 291.575 325.416L241.949 417.654C241.493 418.502 241.265 419.453 241.287 420.415C241.308 421.377 241.578 422.317 242.071 423.143C242.564 423.969 243.262 424.654 244.098 425.129C244.934 425.605 245.879 425.855 246.84 425.856V425.856ZM302.781 409.001H290.151V396.366H302.781V409.001ZM302.781 387.939H290.151V362.663H302.781V387.939Z" fill="#464353"/>
<path opacity="0.1" d="M246.84 425.856H346.092C347.052 425.851 347.993 425.597 348.826 425.12C349.659 424.643 350.354 423.958 350.843 423.133C351.333 422.307 351.601 421.369 351.622 420.409C351.642 419.449 351.414 418.5 350.959 417.654L301.358 325.416C300.882 324.532 300.177 323.793 299.315 323.278C298.454 322.763 297.47 322.491 296.466 322.491C295.463 322.491 294.479 322.763 293.617 323.278C292.756 323.793 292.05 324.532 291.575 325.416L241.949 417.654C241.493 418.502 241.265 419.453 241.287 420.415C241.308 421.377 241.578 422.317 242.071 423.143C242.564 423.969 243.262 424.654 244.098 425.129C244.934 425.605 245.879 425.855 246.84 425.856V425.856ZM302.781 409.001H290.151V396.366H302.781V409.001ZM302.781 387.939H290.151V362.663H302.781V387.939Z" fill="black"/>
<path d="M246.84 428.901H346.092C347.052 428.896 347.993 428.642 348.826 428.165C349.659 427.688 350.354 427.003 350.843 426.177C351.333 425.352 351.601 424.413 351.622 423.453C351.642 422.493 351.414 421.544 350.959 420.699L301.358 328.46C300.882 327.576 300.177 326.837 299.315 326.322C298.454 325.807 297.47 325.535 296.466 325.535C295.463 325.535 294.479 325.807 293.617 326.322C292.756 326.837 292.05 327.576 291.575 328.46L241.949 420.699C241.493 421.546 241.265 422.497 241.287 423.459C241.308 424.421 241.578 425.361 242.071 426.188C242.564 427.014 243.262 427.698 244.098 428.174C244.934 428.649 245.879 428.9 246.84 428.901ZM302.781 412.046H290.151V399.411H302.781V412.046ZM302.781 390.984H290.151V365.708H302.781V390.984Z" fill="#464353"/>
<path d="M142.247 144.142C142.18 145.415 142.812 146.578 143.184 147.796C143.798 150.148 143.736 152.625 143.007 154.944C142.326 157.38 141.182 159.956 142.052 162.336C142.253 162.897 142.557 163.408 142.739 163.968C143.494 166.282 142.095 168.718 140.561 170.612L146.578 174.831C147.457 175.56 148.502 176.06 149.62 176.287C150.746 176.421 152.054 175.818 152.285 174.71C152.364 174.332 152.285 173.936 152.358 173.553C152.432 173.057 152.624 172.585 152.917 172.179C153.21 171.772 153.596 171.441 154.043 171.214C154.947 170.771 155.955 170.583 156.957 170.673C160.65 170.873 163.79 173.303 167.148 174.862C169.362 175.821 171.656 176.583 174.004 177.139C175.337 177.486 176.815 177.803 178.02 177.139C179.224 176.475 179.778 174.935 179.687 173.54C179.5 172.154 179.067 170.811 178.409 169.576C177.745 168.343 177.345 166.985 177.235 165.588C177.235 163.542 178.354 161.679 178.732 159.669C179.261 156.814 178.184 153.909 176.87 151.315C175.556 148.721 173.962 146.225 173.323 143.399C173.196 142.543 172.974 141.703 172.66 140.897C172.355 140.284 171.943 139.731 171.443 139.265C169.186 137.03 165.968 135.97 162.816 135.739C159.665 135.508 156.483 136.025 153.356 136.567C152.163 136.738 150.988 137.017 149.845 137.401C148.213 138.051 146.663 138.891 145.228 139.904C143.804 140.891 142.338 142.334 142.247 144.142Z" fill="#464353"/>
<g opacity="0.1">
<path opacity="0.1" d="M177.217 164.34C177.217 164.522 177.217 164.705 177.253 164.882C177.442 163.098 178.379 161.423 178.713 159.639C178.843 158.924 178.881 158.196 178.829 157.471C178.829 157.788 178.768 158.08 178.713 158.421C178.33 160.431 177.192 162.294 177.217 164.34Z" fill="black"/>
<path opacity="0.1" d="M143.591 150.231C143.663 148.999 143.525 147.764 143.184 146.578C142.823 145.654 142.529 144.706 142.301 143.74C142.301 143.868 142.253 143.99 142.247 144.118C142.18 145.39 142.812 146.553 143.184 147.771C143.419 148.572 143.555 149.398 143.591 150.231V150.231Z" fill="black"/>
<path opacity="0.1" d="M179.632 173.206C179.589 173.75 179.42 174.276 179.136 174.743C178.853 175.209 178.464 175.602 178.001 175.891C176.785 176.555 175.318 176.238 173.986 175.891C171.637 175.336 169.343 174.572 167.13 173.607C163.771 172.055 160.632 169.625 156.939 169.424C155.937 169.335 154.929 169.523 154.025 169.966C153.578 170.193 153.192 170.524 152.899 170.93C152.605 171.337 152.414 171.808 152.34 172.304C152.297 172.688 152.34 173.084 152.267 173.461C152.029 174.57 150.728 175.172 149.602 175.038C148.484 174.812 147.439 174.312 146.56 173.583L141.152 169.783C140.951 170.058 140.75 170.325 140.543 170.575L146.56 174.801C147.439 175.53 148.484 176.03 149.602 176.256C150.728 176.39 152.036 175.787 152.267 174.679C152.346 174.302 152.267 173.906 152.34 173.522C152.414 173.026 152.605 172.555 152.899 172.148C153.192 171.741 153.578 171.411 154.025 171.184C154.929 170.74 155.937 170.553 156.939 170.642C160.632 170.843 163.771 173.273 167.13 174.825C169.343 175.79 171.637 176.554 173.986 177.109C175.318 177.456 176.797 177.772 178.001 177.109C179.206 176.445 179.76 174.904 179.668 173.51C179.662 173.407 179.644 173.309 179.632 173.206Z" fill="black"/>
<path opacity="0.1" d="M142.739 163.938C142.814 164.183 142.869 164.433 142.904 164.687C142.998 164.027 142.942 163.355 142.739 162.72C142.557 162.16 142.253 161.648 142.052 161.088C141.906 160.682 141.812 160.258 141.772 159.828C141.682 160.664 141.778 161.511 142.052 162.306C142.253 162.866 142.557 163.384 142.739 163.938Z" fill="black"/>
</g>
<path d="M149.882 394.99C149.84 395.164 149.742 395.318 149.602 395.429C149.454 395.506 149.288 395.541 149.121 395.532C146.956 395.581 144.79 395.532 142.63 395.684C140.586 395.861 138.535 396.293 136.497 396.062C135.845 396.085 135.202 395.905 134.657 395.546C134.112 395.187 133.692 394.667 133.455 394.059C133.327 393.793 133.213 393.521 133.115 393.243C132.553 391.807 132.27 390.278 132.281 388.737C132.281 388.329 132.281 387.933 132.281 387.519C132.255 387.073 132.196 386.629 132.105 386.191C131.92 385.69 131.942 385.136 132.166 384.651C133.03 383.074 135.116 382.757 136.723 382.635C140.443 382.355 144.185 382.63 147.826 383.451C148.111 384.852 148.434 386.24 148.775 387.629C149.026 388.647 149.294 389.662 149.578 390.673C149.768 391.299 149.923 391.935 150.04 392.579C150.191 393.383 150.136 394.213 149.882 394.99Z" fill="#464353"/>
<path opacity="0.06" d="M149.882 394.99C149.84 395.164 149.742 395.318 149.602 395.429C149.454 395.506 149.288 395.541 149.121 395.532C146.956 395.581 144.79 395.532 142.63 395.684C140.586 395.861 138.535 396.293 136.497 396.062C135.845 396.085 135.202 395.905 134.657 395.546C134.112 395.187 133.692 394.667 133.455 394.059C133.327 393.793 133.213 393.521 133.115 393.243H133.894C136.455 393.243 139.022 393.151 141.584 393.151C142.356 393.151 143.135 393.115 143.901 393.023C144.668 392.932 145.295 392.804 145.994 392.719C147.042 392.619 148.094 392.576 149.146 392.591H150.01C150.168 393.389 150.124 394.214 149.882 394.99Z" fill="black"/>
<path d="M194.69 383.683C194.011 384.475 193.145 385.084 192.171 385.455C187.839 387.281 182.832 386.459 178.36 384.974C177.36 384.602 176.333 384.307 175.288 384.091C174.335 383.957 173.373 383.89 172.41 383.89C171.723 383.89 171.035 383.835 170.348 383.792C168.608 383.683 166.874 383.512 165.146 383.342C163.942 383.253 162.746 383.072 161.569 382.8C161.234 382.714 160.913 382.583 160.614 382.41V382.41C160.359 382.298 160.14 382.115 159.985 381.883C159.83 381.651 159.744 381.38 159.738 381.101C159.786 380.328 160.589 379.883 161.295 379.548C167.555 376.839 174.357 375.663 181.11 374.72C181.797 374.605 182.466 374.4 183.1 374.111C183.86 373.806 183.939 374.305 184.317 374.866C184.495 375.125 184.699 375.366 184.925 375.584C185.658 376.247 186.52 376.753 187.456 377.07C189.098 377.679 190.857 377.843 192.499 378.422C192.996 378.594 193.472 378.823 193.917 379.104C194.31 379.318 194.648 379.619 194.907 379.984C195.166 380.35 195.337 380.769 195.409 381.211C195.481 381.653 195.45 382.106 195.32 382.534C195.19 382.962 194.964 383.355 194.659 383.683H194.69Z" fill="#464353"/>
<path opacity="0.06" d="M194.689 383.683C194.011 384.475 193.145 385.084 192.171 385.455C187.839 387.281 182.832 386.459 178.36 384.974C177.36 384.602 176.333 384.307 175.288 384.091C174.335 383.957 173.373 383.89 172.41 383.89C171.723 383.89 171.035 383.835 170.348 383.792C170.908 383.263 171.48 382.745 172.064 382.246C172.487 381.85 172.975 381.528 173.505 381.296C174.167 381.079 174.871 381.031 175.556 381.156C179.036 381.637 182.163 384.079 185.673 383.865C187.309 383.677 188.891 383.166 190.327 382.361C191.496 381.885 192.537 381.143 193.369 380.194C193.62 379.866 193.812 379.497 193.935 379.104C194.328 379.318 194.667 379.619 194.925 379.984C195.184 380.35 195.356 380.769 195.427 381.211C195.499 381.653 195.468 382.106 195.338 382.534C195.209 382.962 194.982 383.355 194.677 383.683H194.689Z" fill="black"/>
<path d="M193.467 277.86C192.858 279.077 192.08 280.399 190.765 280.776C188.855 281.324 187.018 279.607 186.184 277.805C185.048 275.159 184.834 272.208 185.576 269.426C185.923 268.02 186.452 266.668 186.75 265.255C186.965 264.066 187.095 262.864 187.139 261.656C187.319 259.856 187.276 258.04 187.012 256.249C186.032 251.019 181.536 247.116 180.04 241.976C179.285 239.413 179.322 236.685 179.364 234.012C179.35 233.336 179.42 232.661 179.571 232.002C179.616 231.823 179.677 231.647 179.754 231.479C180.757 229.25 183.732 228.946 185.801 227.649C186.945 226.936 189.543 224.641 190.504 226.735C190.711 227.202 190.866 227.69 190.966 228.19C191.362 230.054 191.203 232.24 191.301 234C191.672 240.649 193.327 247.286 192.56 253.899C192.377 255.026 192.288 256.167 192.292 257.309C192.457 260.171 194.245 262.649 195.067 265.389C196.332 269.511 195.316 273.999 193.467 277.86Z" fill="#FBBEBE"/>
<path opacity="0.1" d="M190.997 228.203C190.545 228.038 190.049 228.038 189.597 228.203L185.479 229.421C184.035 229.806 182.628 230.317 181.275 230.949C180.684 231.239 180.123 231.588 179.602 231.99C179.647 231.811 179.708 231.635 179.784 231.466C180.788 229.238 183.763 228.933 185.831 227.636C186.975 226.924 189.573 224.628 190.534 226.723C190.743 227.197 190.899 227.694 190.997 228.203V228.203Z" fill="black"/>
<path d="M191.264 227.74C191.016 227.589 190.736 227.498 190.447 227.475C190.157 227.452 189.866 227.497 189.597 227.606L185.479 228.824C184.035 229.209 182.628 229.72 181.275 230.352C180.556 230.702 179.884 231.14 179.273 231.655C177.351 228.312 176.839 224.348 176.487 220.512C176.292 218.277 176.146 216.037 176.061 213.814C175.965 212.215 175.998 210.61 176.158 209.016C176.389 207.189 176.919 205.405 177.247 203.59C177.443 202.528 177.569 201.454 177.624 200.375C177.782 198.018 177.674 195.651 177.302 193.318C176.948 190.838 176.382 188.394 175.611 186.011C175.221 184.921 174.753 183.868 174.327 182.796L174.181 182.418C173.412 180.454 172.783 178.438 172.301 176.384C172.106 175.544 172.094 174.661 171.449 174.088C172.055 174.016 172.665 173.991 173.274 174.015C173.396 174.015 173.518 174.015 173.639 174.015C176.139 174.173 178.547 175.015 180.599 176.451C183.243 178.36 185.252 181.021 186.367 184.087C187.65 187.515 187.863 191.242 188.028 194.901C188.356 202.094 188.559 209.292 188.636 216.493C188.636 217.876 188.697 219.349 189.488 220.488C189.71 220.768 189.913 221.063 190.096 221.371C190.382 221.98 190.34 222.655 190.571 223.271C190.741 223.64 190.934 223.998 191.149 224.342C191.421 224.864 191.573 225.44 191.593 226.028C191.613 226.616 191.501 227.201 191.264 227.74Z" fill="#464353"/>
<path d="M150.77 156.266C150.162 156.065 149.553 155.852 148.945 155.657L150.21 155.754C150.421 155.896 150.61 156.068 150.77 156.266Z" fill="#FBBEBE"/>
<path d="M175.684 178.241C175.562 178.655 175.44 179.069 175.306 179.459C174.997 180.46 174.621 181.438 174.181 182.388C173.491 183.948 172.515 185.365 171.303 186.565C170.903 186.987 170.412 187.312 169.867 187.515C169.407 187.633 168.93 187.678 168.456 187.649C166.834 187.649 165.211 187.625 163.589 187.576C162.326 187.59 161.065 187.465 159.829 187.205C158.469 186.833 157.175 186.249 155.996 185.475C151.452 182.662 147.716 178.375 146.116 173.297C145.915 172.651 145.775 171.878 146.219 171.373C146.656 171.016 147.207 170.828 147.771 170.843H147.844C149.152 170.673 150.412 170.24 151.549 169.57C152.285 169.193 152.879 168.586 153.24 167.841C153.487 166.958 153.468 166.022 153.185 165.15L151.835 159.012C151.694 158.029 151.325 157.092 150.758 156.278C151.153 156.418 151.549 156.546 151.975 156.655C155.735 157.672 159.847 157.057 163.534 158.391C164.946 158.908 166.357 159.84 166.783 161.289C167.495 163.725 165.116 166.252 165.797 168.687C166.254 170.344 167.939 171.3 169.448 172.073L170.464 172.591L173.28 174.022L173.67 174.216L173.731 174.247C174.619 174.697 175.556 175.258 175.866 176.214C175.998 176.893 175.935 177.596 175.684 178.241V178.241Z" fill="#FBBEBE"/>
<path opacity="0.1" d="M183.106 192.539C183.003 194.095 182.624 195.621 181.986 197.045C180.765 199.507 180.11 202.212 180.07 204.96C179.602 213.181 176.481 222.966 180.952 229.871C181.062 230.042 181.171 230.212 181.275 230.389C180.556 230.739 179.884 231.176 179.273 231.692C177.351 228.349 176.839 224.385 176.487 220.549C176.292 218.314 176.146 216.073 176.061 213.851C175.965 212.251 175.998 210.647 176.158 209.052C176.389 207.226 176.919 205.441 177.247 203.627C177.443 202.565 177.569 201.491 177.624 200.412C177.782 198.055 177.674 195.687 177.302 193.355C176.948 190.875 176.382 188.43 175.611 186.048C175.221 184.958 174.753 183.904 174.327 182.832L174.181 182.455C173.491 184.015 172.515 185.432 171.303 186.632C170.903 187.054 170.412 187.379 169.867 187.582C169.407 187.7 168.93 187.745 168.456 187.716C166.834 187.716 165.211 187.692 163.589 187.643C162.326 187.657 161.065 187.532 159.829 187.271C158.469 186.9 157.175 186.316 155.996 185.542C151.452 182.729 147.716 178.442 146.116 173.364C145.915 172.718 145.775 171.945 146.219 171.44C146.656 171.083 147.207 170.895 147.771 170.91H147.844L153.319 177.687C153.947 178.404 154.479 179.201 154.901 180.056C154.983 180.343 155.153 180.596 155.388 180.78C155.578 180.868 155.787 180.905 155.996 180.89C161.137 180.89 167.987 180.89 173.128 180.89C173.145 179.978 172.882 179.084 172.374 178.327C172.216 178.363 172.003 178.375 172.331 178.278C172.034 176.301 171.396 174.391 170.445 172.633C170.389 172.512 170.326 172.394 170.257 172.28C169.848 171.678 169.544 171.011 169.356 170.307C170.005 170.1 170.703 170.1 171.352 170.307C172.1 170.63 172.49 171.44 172.818 172.189C173.098 172.798 173.378 173.449 173.627 174.088C173.627 174.155 173.688 174.229 173.712 174.296C174.243 175.555 174.583 176.887 174.722 178.247C174.759 178.747 174.88 179.38 175.294 179.544C175.359 179.574 175.43 179.591 175.501 179.593C175.929 179.436 176.395 179.41 176.838 179.519C177.281 179.627 177.682 179.865 177.989 180.202C178.588 180.888 179.006 181.713 179.206 182.601C179.404 183.489 179.693 184.355 180.07 185.183C180.855 186.681 179.656 187.351 181.074 188.27C181.737 188.635 182.307 189.148 182.741 189.768C183.142 190.633 183.269 191.599 183.106 192.539V192.539Z" fill="black"/>
<path opacity="0.1" d="M147.771 383.476C148.057 384.876 148.379 386.265 148.72 387.653L148.683 387.738C145.903 386.52 143.056 385.248 140.02 384.98C137.203 384.736 134.143 385.497 132.227 387.543C132.2 387.097 132.141 386.653 132.05 386.216C131.866 385.715 131.887 385.16 132.111 384.675C132.975 383.098 135.062 382.782 136.668 382.66C140.389 382.379 144.131 382.654 147.771 383.476Z" fill="black"/>
<path opacity="0.1" d="M171.735 179.441C172.021 179.441 171.918 179.441 171.778 179.49C171.638 179.538 171.407 179.538 171.735 179.441Z" fill="black"/>
<path opacity="0.1" d="M184.955 375.584C182.242 377.315 179.693 379.29 177.338 381.485C176.655 382.217 175.84 382.814 174.935 383.244C174.001 383.545 173.015 383.647 172.039 383.543C168.212 383.388 164.397 383.01 160.614 382.41V382.41C160.359 382.298 160.14 382.115 159.985 381.883C159.83 381.651 159.744 381.38 159.738 381.101C159.786 380.328 160.589 379.883 161.295 379.548C167.555 376.839 174.357 375.663 181.11 374.72C181.797 374.605 182.466 374.4 183.1 374.111C183.86 373.806 183.939 374.305 184.317 374.866C184.504 375.126 184.718 375.367 184.955 375.584V375.584Z" fill="black"/>
<path d="M140.318 172.377C141.212 173.175 142.234 173.821 143.141 174.594C145.575 176.658 147.108 179.544 148.616 182.358C147.722 182.681 146.754 182.747 145.824 182.546C145.346 185.248 145.426 188.019 146.061 190.687C144.844 191.523 143.898 192.698 143.342 194.067C142.909 195.456 142.612 196.883 142.453 198.329C141.577 204.666 140.697 211.003 139.813 217.34C139.795 217.96 139.582 218.559 139.205 219.051C139.036 219.187 138.881 219.34 138.742 219.507C138.556 219.917 138.483 220.369 138.529 220.817C138.493 221.261 138.201 221.791 137.757 221.73C137.541 221.678 137.35 221.553 137.215 221.377C136.771 220.906 136.364 220.401 135.999 219.867C132.409 226.76 130.681 234.188 128.783 241.727C127.426 247.097 126.07 252.529 126.003 258.07C126.021 260.691 126.186 263.31 126.496 265.913L127.031 271.259C127.463 275.558 127.895 279.863 128.363 284.162C128.667 286.89 128.972 289.642 129.951 292.212C131.411 296.115 129.793 300.517 130.414 304.646C130.9 307.879 131.868 311.222 130.894 314.34C130.505 315.588 129.823 316.727 129.312 317.932C128.059 320.928 127.931 324.259 127.822 327.504C127.625 330.349 127.731 333.207 128.138 336.029C128.661 338.946 129.836 341.802 129.604 344.749C129.282 348.944 126.191 352.531 125.814 356.72C125.516 360.063 126.982 363.29 128.558 366.256C129.72 368.442 128.102 371.267 127.487 373.672C126.27 378.385 128.296 383.317 130.779 387.501C130.842 387.644 130.954 387.761 131.095 387.829C131.381 387.933 131.636 387.653 131.825 387.415C133.693 385.016 137.002 384.109 140.038 384.371C143.074 384.633 145.915 385.887 148.702 387.129L152.65 378.33C153.319 376.839 154.001 375.225 153.666 373.623C153.429 372.479 152.693 371.511 152.169 370.463C150.953 367.991 150.892 365.111 150.88 362.34L150.807 346.691C153.885 342.819 155.765 338.215 156.951 333.405C158.771 340.171 158.897 347.282 157.316 354.108C157.024 355.14 156.82 356.195 156.708 357.262C156.471 361.604 159.872 365.275 160.778 369.525C160.866 369.851 160.891 370.19 160.851 370.524C160.749 370.935 160.578 371.327 160.346 371.681C158.716 374.64 158.892 378.227 159.129 381.6C163.396 382.344 167.706 382.805 172.033 382.983C173.009 383.08 173.994 382.978 174.929 382.684C175.834 382.252 176.649 381.653 177.332 380.918C180.095 378.318 183.127 376.021 186.379 374.068C184.563 371.053 182.022 368.541 178.987 366.761C179.967 365.318 182.199 365.434 183.501 364.277C184.155 363.629 184.582 362.788 184.718 361.878C185.205 359.491 184.602 357.006 184 354.662C182.832 350.046 181.658 345.413 179.741 341.053C178.875 339.261 178.111 337.421 177.454 335.542C175.86 330.293 176.973 324.582 175.769 319.217C175.379 317.5 174.753 315.728 175.191 314.017C175.86 311.38 178.841 309.815 179.498 307.173C181.853 297.765 182.272 288.016 183.611 278.414C183.91 276.579 184.071 274.725 184.091 272.866C184.091 270.924 183.745 269 183.605 267.064C183.057 259.312 185.533 251.579 184.901 243.833C184.495 239.06 182.924 234.46 180.326 230.437C175.854 223.526 178.975 213.747 179.443 205.527C179.479 202.778 180.131 200.073 181.354 197.611C181.996 196.189 182.378 194.662 182.479 193.105C182.667 192.145 182.548 191.15 182.138 190.261C181.71 189.638 181.141 189.125 180.478 188.763C179.06 187.838 180.259 187.168 179.474 185.67C179.096 184.842 178.807 183.977 178.61 183.088C178.411 182.201 177.992 181.378 177.393 180.695C177.085 180.358 176.685 180.12 176.241 180.012C175.798 179.903 175.333 179.929 174.905 180.086C174.327 180.086 174.169 179.319 174.12 178.741C173.956 176.622 173.08 174.63 172.222 172.682C171.893 171.933 171.504 171.123 170.756 170.8C170.104 170.596 169.406 170.596 168.754 170.8C168.942 171.507 169.249 172.176 169.661 172.779C170.715 174.631 171.416 176.663 171.729 178.771C171.121 178.954 172.337 178.771 171.729 178.771C172.274 179.531 172.554 180.449 172.526 181.383C167.391 181.383 160.541 181.383 155.4 181.383C155.191 181.4 154.982 181.362 154.792 181.274C154.557 181.088 154.385 180.835 154.299 180.549C153.88 179.694 153.348 178.899 152.717 178.186L146.694 170.752C146.56 170.557 146.383 170.397 146.177 170.283C145.928 170.213 145.665 170.213 145.416 170.283C143.463 170.569 142.022 171.385 140.318 172.377Z" fill="#50C9C3"/>
<path opacity="0.1" d="M161.934 273.116C162.972 273.102 163.996 273.367 164.897 273.883C165.344 274.147 165.715 274.522 165.973 274.973C166.231 275.423 166.368 275.934 166.369 276.453C166.302 277.604 165.42 278.517 164.781 279.498C164.386 280.095 164.071 280.742 163.844 281.422C163.774 281.576 163.757 281.75 163.796 281.915C163.869 282.146 164.118 282.262 164.331 282.366C165.105 282.716 165.766 283.275 166.24 283.981C166.714 284.687 166.982 285.51 167.014 286.36C166.959 288.735 164.641 290.659 164.769 293.058C164.827 293.558 164.912 294.054 165.025 294.544C165.303 296.589 165.019 298.671 164.203 300.566C163.467 302.478 162.463 304.274 161.672 306.168C159.537 311.313 159.075 317.013 159.239 322.609C159.367 326.408 158.022 330.025 156.805 333.642C157.493 326.357 157.676 319.032 157.353 311.721C157.268 309.736 157.018 307.861 157.11 305.87C157.256 302.709 159.02 299.835 159.47 296.736C159.726 294.964 159.555 293.162 159.598 291.371C159.683 287.718 160.675 284.113 160.742 280.447C160.827 277.86 160.589 275.193 161.934 273.116Z" fill="black"/>
<path d="M136.546 173.681C135.337 174.284 134.205 175.032 133.176 175.909C132.1 176.979 131.201 178.212 130.511 179.563C129.671 181.094 128.917 182.672 128.254 184.288C127.396 186.382 126.684 188.702 127.274 190.888C127.81 192.867 129.325 194.408 130.371 196.168C131.417 197.927 132.032 199.992 132.835 201.922C133.906 204.498 135.372 206.897 136.43 209.479C137.489 212.06 138.128 214.959 137.459 217.644C137.264 218.436 135.98 219.051 135.98 219.861C135.98 221.2 137.915 222.655 139.199 223.045C140.677 223.502 142.289 222.82 143.5 221.827C145.721 220.068 147.071 217.431 148.069 214.776C149.675 210.514 150.533 205.989 151.306 201.496C151.865 198.195 152.388 194.889 152.687 191.564C152.96 188.568 153.046 185.475 152.255 182.601C151.517 179.963 150.081 177.573 148.099 175.684C146.518 174.162 143.926 172.116 141.626 172.061C139.807 172.055 138.104 172.822 136.546 173.681Z" fill="#464353"/>
<path d="M153.842 247.085C153.776 247.501 153.621 247.898 153.387 248.248C153.152 248.598 152.845 248.893 152.486 249.113C151.768 249.549 150.986 249.87 150.168 250.063C148.537 250.538 146.81 250.976 145.161 250.556C143.865 250.134 142.669 249.452 141.644 248.553L123.222 234.438C121.743 233.388 120.382 232.179 119.164 230.833C118.466 229.964 117.823 229.051 117.242 228.099C116.472 227.01 115.869 225.811 115.453 224.543C115.305 223.985 115.231 223.41 115.234 222.832C115.229 222.286 115.363 221.747 115.624 221.267C116.068 220.524 117.017 220.372 117.796 220.165C120.409 219.489 123.122 219.282 125.808 219.556C126.044 219.545 126.277 219.61 126.473 219.743C126.668 219.876 126.815 220.069 126.891 220.293C127.299 221.042 127.651 221.821 128.016 222.601C128.577 223.93 129.307 225.18 130.188 226.321C131.038 227.245 131.942 228.118 132.896 228.933C134.843 230.76 136.437 232.952 138.511 234.633C140.914 236.575 143.835 237.738 146.572 239.169C149.31 240.6 152.011 242.457 153.386 245.228C153.705 245.794 153.863 246.436 153.842 247.085Z" fill="#FBBEBE"/>
<path opacity="0.1" d="M175.166 148.612C175.167 152.456 173.7 156.155 171.066 158.953C168.432 161.751 164.83 163.437 160.995 163.665C157.161 163.892 153.385 162.646 150.438 160.179C147.492 157.713 145.598 154.213 145.145 150.395C144.691 146.578 145.711 142.731 147.997 139.642C150.283 136.552 153.662 134.453 157.443 133.775C161.223 133.096 165.12 133.888 168.337 135.989C171.553 138.091 173.846 141.343 174.747 145.08C175.026 146.236 175.167 147.422 175.166 148.612V148.612Z" fill="black"/>
<path d="M175.166 148.003C175.167 151.847 173.7 155.546 171.066 158.344C168.432 161.143 164.83 162.828 160.995 163.056C157.161 163.283 153.385 162.037 150.438 159.57C147.492 157.104 145.598 153.604 145.145 149.786C144.691 145.969 145.711 142.122 147.997 139.033C150.283 135.943 153.662 133.844 157.443 133.166C161.223 132.487 165.12 133.279 168.337 135.38C171.553 137.482 173.846 140.734 174.747 144.471C175.026 145.627 175.167 146.813 175.166 148.003V148.003Z" fill="#FBBEBE"/>
<path opacity="0.1" d="M128.016 222.576C127.323 223.021 126.295 222.875 125.437 222.68C122.054 221.925 118.319 221.383 115.234 222.832C115.229 222.286 115.363 221.747 115.624 221.267C116.068 220.524 117.017 220.372 117.796 220.165C120.409 219.489 123.122 219.282 125.808 219.556C126.044 219.545 126.277 219.61 126.473 219.743C126.668 219.876 126.815 220.069 126.891 220.293C127.299 221.017 127.651 221.797 128.016 222.576Z" fill="black"/>
<path d="M121.659 202.074C120.911 204.51 120.296 207.012 118.83 209.077C118.345 209.62 117.98 210.259 117.759 210.952C117.742 211.464 117.659 211.972 117.51 212.462C117.303 212.876 116.865 213.15 116.688 213.577C116.427 214.185 116.767 214.971 116.421 215.543C116.258 215.773 116.064 215.978 115.843 216.152C115.015 216.919 114.808 218.143 114.79 219.276C114.772 220.409 114.881 221.565 114.51 222.631C117.723 220.713 121.811 221.285 125.461 222.101C126.477 222.327 127.737 222.497 128.394 221.681C129.051 220.865 128.674 219.794 128.765 218.813C128.886 217.534 129.763 216.475 130.304 215.312C130.912 214.003 131.119 212.541 131.588 211.177C132.555 208.309 134.63 205.971 135.962 203.262C136.455 202.33 136.749 201.305 136.826 200.254C136.78 198.89 136.424 197.555 135.786 196.35C134.519 193.544 133.013 190.853 131.284 188.307C130.511 187.168 129.179 185.061 127.98 186.882C127.007 188.349 126.398 190.219 125.68 191.826C124.133 195.157 122.79 198.58 121.659 202.074Z" fill="#464353"/>
<path d="M176.554 178.436C174.727 178.562 172.895 178.278 171.192 177.605C169.489 176.932 167.958 175.886 166.71 174.545C166.5 174.354 166.348 174.107 166.272 173.833C166.237 173.477 166.337 173.12 166.552 172.834C167.282 171.708 168.541 170.965 169.125 169.753C169.709 168.541 169.508 167.147 169.563 165.819C169.661 163.439 170.597 161.082 170.677 158.738C170.705 158.138 170.66 157.537 170.543 156.948C170.263 156.073 170.091 155.167 170.032 154.25C170.111 152.466 171.717 151.078 171.985 149.318C172.331 147.077 170.476 145.129 168.608 143.838C167.184 142.849 165.638 142.049 164.009 141.457C163.008 141.098 161.972 140.847 160.918 140.708C158.953 140.442 156.953 140.666 155.096 141.359C154.327 141.65 153.599 142.039 152.93 142.516C152.531 142.769 152.2 143.113 151.963 143.521C151.768 143.98 151.68 144.478 151.707 144.976C151.671 147.467 151.95 150.116 150.764 152.283C150.156 153.446 149.121 154.39 148.616 155.62C148.41 156.132 148.281 156.672 148.233 157.222C148.172 157.792 148.142 158.365 148.142 158.939C148.105 162.148 148.142 165.533 149.772 168.316C150.348 169.157 150.87 170.034 151.336 170.94C151.562 171.399 151.667 171.908 151.64 172.419C151.613 172.929 151.456 173.425 151.184 173.857C150.854 174.252 150.438 174.565 149.967 174.77C148.759 175.351 147.445 175.675 146.106 175.723C144.767 175.771 143.432 175.542 142.186 175.051C143.643 173.668 144.645 171.873 145.056 169.906C145.467 167.939 145.268 165.893 144.486 164.041C144.046 163.294 143.761 162.466 143.646 161.606C143.707 160.831 143.913 160.075 144.254 159.377C145.088 157.089 145.218 154.603 144.625 152.241C144.254 150.791 143.609 149.391 143.494 147.899C143.397 146.773 143.446 145.639 143.64 144.526C143.973 142.534 144.85 140.672 146.174 139.148C147.498 137.623 149.217 136.494 151.141 135.885C151.452 135.782 151.75 135.684 152.09 135.599C153.566 135.271 155.074 135.11 156.586 135.118C159.963 135.008 163.388 134.911 166.643 135.794C168.554 136.295 170.332 137.209 171.851 138.473C172.929 139.38 173.79 140.519 174.369 141.804C174.686 142.544 174.925 143.316 175.081 144.106C175.221 144.757 175.325 145.415 175.428 146.072C176.164 150.755 176.9 155.529 176.115 160.205C175.805 162.032 175.264 163.859 175.02 165.722C174.43 170.015 175.495 174.283 176.554 178.436Z" fill="#464353"/>
<path d="M154.938 184.452C155.563 184.452 156.069 183.945 156.069 183.32C156.069 182.694 155.563 182.187 154.938 182.187C154.313 182.187 153.806 182.694 153.806 183.32C153.806 183.945 154.313 184.452 154.938 184.452Z" fill="white"/>
<path d="M174.035 183.916C174.66 183.916 175.166 183.409 175.166 182.784C175.166 182.158 174.66 181.651 174.035 181.651C173.41 181.651 172.903 182.158 172.903 182.784C172.903 183.409 173.41 183.916 174.035 183.916Z" fill="white"/>
<path opacity="0.1" d="M154.938 126.082L152.504 121.484C152.658 121.301 152.827 121.13 153.009 120.973C153.36 120.756 153.772 120.658 154.183 120.693L154.938 126.082Z" fill="black"/>
<path opacity="0.1" d="M161.648 120.48L158.892 124.559L157.322 120.084C157.992 119.796 158.717 119.659 159.446 119.682C160.219 119.823 160.963 120.093 161.648 120.48V120.48Z" fill="black"/>
<g opacity="0.1">
<path opacity="0.1" d="M151.184 172.651C150.854 173.046 150.438 173.359 149.967 173.565C147.81 174.598 145.349 174.804 143.05 174.143C142.782 174.469 142.494 174.776 142.186 175.063C143.432 175.555 144.767 175.784 146.106 175.735C147.445 175.687 148.759 175.363 149.967 174.783C150.438 174.577 150.854 174.264 151.184 173.869C151.393 173.565 151.536 173.22 151.603 172.857C151.67 172.494 151.66 172.121 151.573 171.762C151.512 172.085 151.379 172.388 151.184 172.651Z" fill="black"/>
<path opacity="0.1" d="M144.583 152.259C144.782 153.057 144.898 153.873 144.93 154.695C145 153.466 144.883 152.234 144.583 151.041C144.212 149.592 143.567 148.191 143.451 146.7C143.451 146.511 143.451 146.322 143.421 146.127C143.392 146.724 143.402 147.322 143.451 147.917C143.567 149.409 144.212 150.81 144.583 152.259Z" fill="black"/>
<path opacity="0.1" d="M176.073 160.224C176.331 158.613 176.441 156.983 176.401 155.352C176.38 156.576 176.27 157.797 176.073 159.006C175.763 160.832 175.221 162.659 174.978 164.522C174.852 165.522 174.806 166.53 174.838 167.537C174.854 166.936 174.901 166.336 174.978 165.74C175.221 163.877 175.763 162.069 176.073 160.224Z" fill="black"/>
<path opacity="0.1" d="M144.461 162.836C144.143 162.236 143.886 161.606 143.695 160.954C143.643 161.174 143.618 161.399 143.622 161.624C143.736 162.484 144.022 163.312 144.461 164.06C144.908 165.08 145.166 166.174 145.222 167.287C145.332 165.763 145.071 164.236 144.461 162.836V162.836Z" fill="black"/>
<path opacity="0.1" d="M170.543 156.923C170.596 157.201 170.635 157.482 170.658 157.764C170.658 157.672 170.658 157.587 170.658 157.496C170.686 156.896 170.641 156.294 170.524 155.705C170.391 155.066 170.172 154.433 170.068 153.787C170.038 153.932 170.02 154.078 170.013 154.226C170.079 155.143 170.256 156.049 170.543 156.923V156.923Z" fill="black"/>
<path opacity="0.1" d="M166.71 173.303C166.616 173.205 166.529 173.101 166.448 172.992C166.299 173.236 166.236 173.524 166.272 173.808C166.348 174.082 166.5 174.329 166.71 174.521C167.958 175.862 169.489 176.907 171.192 177.581C172.895 178.254 174.727 178.538 176.554 178.412C176.45 178.01 176.347 177.614 176.249 177.194C174.473 177.276 172.699 176.97 171.052 176.298C169.405 175.626 167.923 174.604 166.71 173.303V173.303Z" fill="black"/>
<path opacity="0.1" d="M171.972 148.161C171.97 148.139 171.97 148.116 171.972 148.094C172.319 145.853 170.464 143.905 168.596 142.614C167.172 141.625 165.626 140.825 163.996 140.233C162.996 139.874 161.96 139.623 160.906 139.484C158.941 139.218 156.941 139.442 155.084 140.135C154.315 140.426 153.587 140.815 152.918 141.292C152.519 141.545 152.187 141.889 151.95 142.297C151.755 142.756 151.668 143.254 151.695 143.752C151.695 144.173 151.695 144.593 151.695 145.019V144.97C151.668 144.472 151.755 143.974 151.95 143.515C152.187 143.107 152.519 142.762 152.918 142.51C153.587 142.033 154.315 141.644 155.084 141.353C156.941 140.66 158.941 140.436 160.906 140.702C161.96 140.841 162.996 141.092 163.996 141.451C165.626 142.043 167.172 142.843 168.596 143.832C170.147 144.879 171.674 146.389 171.972 148.161Z" fill="black"/>
<path opacity="0.1" d="M150.764 151.078C150.156 152.241 149.121 153.184 148.616 154.414C148.41 154.926 148.281 155.466 148.233 156.016C148.172 156.586 148.142 157.159 148.142 157.733C148.142 158.251 148.142 158.774 148.142 159.298C148.142 159.182 148.142 159.067 148.142 158.951C148.142 158.377 148.172 157.804 148.233 157.234C148.281 156.684 148.41 156.144 148.616 155.632C149.121 154.414 150.131 153.458 150.764 152.295C151.744 150.469 151.725 148.368 151.707 146.279C151.788 147.932 151.464 149.579 150.764 151.078V151.078Z" fill="black"/>
</g>
<path opacity="0.1" d="M175.039 144.148C174.955 144.267 174.857 144.376 174.747 144.471C174.532 144.648 174.292 144.791 174.035 144.897C172.264 145.664 172.337 143.162 171.413 142.303C170.82 141.865 170.092 141.65 169.356 141.694C167.576 141.605 165.793 141.526 164.009 141.457C161.034 141.347 158.065 141.292 155.096 141.359C153.672 141.384 152.253 141.443 150.837 141.536C149.194 141.646 147.43 141.859 146.031 142.638C145.552 142.902 145.118 143.241 144.747 143.643C144.412 144.008 144.06 144.471 143.597 144.556C143.931 142.564 144.808 140.703 146.131 139.178C147.455 137.653 149.174 136.524 151.099 135.916C154.214 133.593 158.106 132.565 161.961 133.048C165.816 133.53 169.335 135.485 171.784 138.504C172.862 139.411 173.723 140.549 174.302 141.834C174.628 142.578 174.875 143.353 175.039 144.148V144.148Z" fill="black"/>
<path d="M174.035 143.679C172.264 144.447 172.337 141.944 171.413 141.085C170.82 140.648 170.092 140.432 169.356 140.476C163.191 140.071 157.008 140.018 150.837 140.318C148.641 140.464 146.232 140.793 144.753 142.425C144.376 142.839 143.981 143.375 143.415 143.357C143.226 142.139 143.092 140.872 143.001 139.624C142.946 139.156 142.971 138.683 143.074 138.223C143.226 137.7 143.573 137.255 143.749 136.744C143.923 136.093 143.985 135.418 143.932 134.747C143.959 132.262 144.626 129.827 145.868 127.676C147.111 125.526 148.888 123.733 151.026 122.471C151.562 122.208 152.06 121.872 152.504 121.472C152.658 121.288 152.827 121.117 153.009 120.961C153.36 120.744 153.772 120.646 154.183 120.681C154.475 120.681 154.792 120.681 155.047 120.681C155.834 120.594 156.603 120.389 157.329 120.072C157.998 119.784 158.723 119.647 159.452 119.67C160.225 119.811 160.97 120.081 161.654 120.468C161.983 120.626 162.328 120.751 162.682 120.839C163.236 120.967 163.808 120.961 164.361 121.07C165.258 121.299 166.11 121.678 166.88 122.191C167.8 122.687 168.65 123.301 169.411 124.018C170.238 124.964 170.9 126.042 171.37 127.208C172.176 128.819 172.788 130.52 173.195 132.274C173.688 134.795 173.445 137.523 174.613 139.813C175.325 141.25 175.976 142.845 174.035 143.679Z" fill="#50C9C3"/>
<path opacity="0.1" d="M143.196 141.767C143.196 141.767 155.808 130.283 174.588 139.807C174.588 139.807 153.386 134.978 143.196 141.767Z" fill="black"/>
<path d="M5.77359 200.448C4.05795 197.635 1.47839 195.059 1.87993 191.869C6.601 192.411 11.0787 191.26 15.4043 189.257C19.73 187.253 23.7453 184.653 27.7972 182.102C29.3911 181.097 30.979 180.111 32.5608 179.197C35.0674 177.76 37.5557 176.153 40.1048 174.746C43.7551 172.737 47.4784 171.093 51.5789 170.776C52.3217 170.718 53.067 170.7 53.8117 170.721C58.8613 170.819 64.0934 172.177 68.5347 169.911L68.8084 169.765C71.3271 168.383 73.1584 166.033 75.3181 164.127C76.8709 162.783 78.5615 161.607 80.3617 160.619C83.6409 158.793 87.1938 157.331 90.546 155.608C91.4041 155.166 92.2189 154.644 92.9796 154.049L93.5515 153.592L93.6792 153.483C93.8192 153.367 93.9591 153.251 94.0929 153.13L94.3545 152.898L94.6222 152.655L94.8291 152.46L95.1637 152.143L95.2002 152.101L95.7295 151.577L95.9424 151.364L96.3135 150.98L96.5326 150.761C96.9037 150.377 97.2748 149.988 97.652 149.61C98.0292 149.233 98.5402 148.721 98.9965 148.301L99.4346 147.911L99.5623 147.802L99.9152 147.509L100.079 147.369L100.426 147.101L100.597 146.967C100.767 146.84 100.943 146.718 101.12 146.596C101.282 146.483 101.453 146.384 101.631 146.298L100.493 143.539L103.766 142.188L148.908 251.822L145.629 253.174L119.809 190.456L119.627 190.639C113.646 196.546 106.319 200.909 98.2786 203.353H98.23C93.734 204.711 88.7026 205.673 84.9185 208.194C83.5767 209.067 82.4106 210.184 81.4811 211.488C80.5929 212.755 79.9723 214.198 79.0476 215.415C78.8711 215.641 78.6764 215.86 78.4818 216.067C77.3753 217.165 76.1511 218.137 74.8314 218.965L74.2535 219.361C70.3337 222.122 66.25 224.641 62.0249 226.906C59.5868 228.176 57.0446 229.235 54.4262 230.072C52.5219 230.681 50.5569 231.125 48.6526 231.728C47.3717 232.116 46.1277 232.618 44.9354 233.226C41.7109 234.913 39.2348 237.556 36.8925 240.375C34.8423 242.847 32.8954 245.465 30.6444 247.718C29.2329 249.119 27.0853 250.446 25.3819 249.624L25.0351 249.423C25.0898 249.332 25.1324 249.241 25.1811 249.143C26.5256 246.324 24.8708 242.841 22.6441 240.582C22.4129 240.344 22.1757 240.113 21.9323 239.894C21.689 239.675 21.2509 239.285 20.9041 238.98C18.9999 237.342 16.974 235.82 15.6538 233.707C14.6461 231.932 13.9622 229.992 13.6339 227.977C13.0256 225.109 12.6179 222.156 11.0605 219.714C10.0384 218.101 8.51741 216.725 7.41015 215.178C6.71023 214.263 6.25012 213.187 6.0717 212.048C5.82226 210.069 6.74093 208.133 7.08771 206.16C7.19087 205.622 7.23372 205.075 7.21547 204.528C7.08838 203.068 6.59219 201.664 5.77359 200.448V200.448Z" fill="url(#paint0_linear_2_4)"/>
<path d="M144.482 252.233L147.705 250.904L103.315 143.112L100.092 144.442L144.482 252.233Z" fill="#D6D8E1"/>
<path d="M12.1495 219.331C13.6765 221.736 14.0841 224.634 14.6743 227.454C15.0016 229.436 15.675 231.344 16.6637 233.092C17.9656 235.169 19.9551 236.667 21.8228 238.274C22.1635 238.572 22.5042 238.883 22.8327 239.175C23.07 239.388 23.3073 239.62 23.5324 239.845C25.7226 242.068 27.347 245.496 26.0268 248.266C25.9862 248.361 25.9395 248.452 25.8868 248.54C25.9937 248.613 26.1055 248.678 26.2214 248.735C27.9006 249.551 30.0117 248.248 31.3988 246.866C33.6133 244.649 35.5297 242.08 37.5435 239.65C39.8432 236.874 42.2828 234.274 45.4525 232.617C46.6226 232.017 47.8443 231.524 49.1028 231.144C50.9706 230.535 52.9052 230.102 54.7791 229.518C57.3528 228.694 59.8521 227.653 62.25 226.406C66.4111 224.177 70.4338 221.699 74.2961 218.984L74.868 218.594C76.1649 217.781 77.3686 216.827 78.4574 215.75C78.6521 215.543 78.8407 215.33 79.0171 215.105C79.9541 213.887 80.5685 212.493 81.4507 211.244C82.3656 209.962 83.513 208.863 84.8333 208.005C88.5566 205.527 93.4967 204.577 97.9197 203.243H97.9684C105.872 200.837 113.074 196.547 118.958 190.742C119.445 190.335 119.81 189.799 120.01 189.196C120.199 188.337 119.736 187.485 119.292 186.73C118.775 185.841 118.27 184.952 117.771 184.05C115.528 179.963 113.525 175.749 111.773 171.428C111.389 170.478 111.018 169.534 110.659 168.578C109.739 166.142 108.899 163.672 108.141 161.167C107.891 160.339 107.648 159.505 107.417 158.671C107.374 158.512 107.325 158.342 107.283 158.159C106.273 154.098 104.922 144.593 100.761 147.436C99.5232 148.322 98.3723 149.323 97.3235 150.426C96.5143 151.248 95.7234 152.095 94.8899 152.91C94.211 153.579 93.494 154.207 92.7423 154.792C91.9795 155.377 91.165 155.89 90.3088 156.326C87.0052 158.019 83.5131 159.438 80.2948 161.253C78.5225 162.222 76.8583 163.377 75.3303 164.699C73.2071 166.575 71.4062 168.888 68.9301 170.246L68.6624 170.392C64.2942 172.615 59.1534 171.281 54.1828 171.184C53.4523 171.166 52.7213 171.184 51.9926 171.239C47.9591 171.543 44.2722 173.163 40.7071 175.142C38.2005 176.53 35.7548 178.101 33.2909 179.52C31.7334 180.415 30.1759 181.383 28.6063 182.376C24.6275 184.885 20.5939 187.515 16.4386 189.415C12.1799 191.351 7.78127 192.508 3.13929 191.978C2.74384 195.114 5.27472 197.647 6.96603 200.412C7.77836 201.6 8.27078 202.978 8.39574 204.412C8.41809 204.949 8.37931 205.486 8.28014 206.014C7.93945 207.956 7.06337 209.856 7.28239 211.811C7.45503 212.925 7.90482 213.978 8.59042 214.874C9.64901 216.39 11.1396 217.748 12.1495 219.331Z" fill="#F86D70"/>
<path d="M135.84 232.014C135.84 232.014 141.17 236.667 146.572 239.145C151.975 241.623 148.397 250.513 148.397 250.513C148.397 250.513 142.673 251.829 138.663 246.251C134.654 240.673 135.84 232.014 135.84 232.014Z" fill="#FBBEBE"/>
<path d="M423.023 311.204C423.023 311.204 408.908 329.794 397.197 329.946C385.485 330.098 378.611 337.777 384.171 342.575C389.732 347.373 450.327 339.835 450.327 339.835C450.327 339.835 450.899 316.988 445.649 313.652C440.398 310.315 423.023 311.204 423.023 311.204Z" fill="#444176"/>
<path d="M574.784 333.52C574.784 333.52 576.944 348.244 570.27 358.285C563.596 368.326 582.328 372.199 582.328 372.199C582.328 372.199 595.938 375.992 596.93 362.535C597.921 349.078 597.599 338.788 596.321 337.691C595.044 336.595 593.979 329.027 593.979 329.027L574.784 333.52Z" fill="#444176"/>
<path d="M361.119 361.329C361.119 361.329 360.627 313.706 407.71 294.349L418.642 273.53L423.887 260.743C425.786 256.112 428.773 252.007 432.596 248.778C436.418 245.549 440.963 243.291 445.843 242.196L454.324 240.29L456.946 229.232C458.343 223.321 461.439 217.949 465.851 213.779C470.263 209.608 475.799 206.822 481.775 205.764C486.932 204.806 492.165 204.317 497.41 204.303C499.731 204.338 502.003 204.973 504.006 206.147C506.009 207.32 507.675 208.993 508.842 211.001V211.001C508.842 211.001 553.448 210.508 555.426 234.815C555.426 234.815 559.891 257.132 566.334 261.102C566.334 261.102 577.236 258.624 588.139 274.498L600.033 315.174C600.033 315.174 631.255 344.438 621.837 371.194C621.837 371.194 608.951 389.547 543.532 377.143C543.532 377.143 473.653 398.455 436.456 369.227C436.45 369.264 374.504 381.168 361.119 361.329Z" fill="#A8A8A8"/>
<path opacity="0.1" d="M392.342 353.889C392.342 353.889 402.259 339.999 401.76 330.074C401.261 320.149 404.096 295.975 404.096 295.975" stroke="black" stroke-miterlimit="10"/>
<path opacity="0.1" d="M428.523 316.684C428.523 316.684 438.433 298.331 437.441 288.412C437.441 288.412 447.851 269.536 455.778 271.046" stroke="black" stroke-miterlimit="10"/>
<path opacity="0.1" d="M483.04 264.597C483.04 264.597 510.296 254.678 511.786 246.744" stroke="black" stroke-miterlimit="10"/>
<path opacity="0.1" d="M492.951 287.42C492.951 287.42 521.697 274.523 521.697 271.046H536.061C536.061 271.046 556.88 298.331 554.404 310.236" stroke="black" stroke-miterlimit="10"/>
<path opacity="0.1" d="M526.655 307.258C526.655 307.258 498.901 305.273 488.984 313.213C479.067 321.153 461.229 325.117 461.229 325.117C461.229 325.117 450.82 347.44 446.853 351.404C442.887 355.368 436.444 369.264 436.444 369.264" stroke="black" stroke-miterlimit="10"/>
<path opacity="0.1" d="M526.655 333.551C526.655 333.551 529.624 343.963 533.591 349.918C537.557 355.874 543.501 377.198 543.501 377.198" stroke="black" stroke-miterlimit="10"/>
<path opacity="0.1" d="M573.239 363.808C573.239 363.808 579.53 381.326 585.06 381.497" stroke="black" stroke-miterlimit="10"/>
<path opacity="0.1" d="M532.033 288.613C532.033 288.613 548.374 293.034 555.207 303.745C562.039 314.455 582.906 324.167 582.906 324.167" stroke="black" stroke-miterlimit="10"/>
<path opacity="0.1" d="M539.042 235.845C539.042 235.845 539.042 258.661 545.485 258.661C551.927 258.661 566.304 261.139 566.304 261.139" stroke="black" stroke-miterlimit="10"/>
<path opacity="0.1" d="M507.467 208.748C507.467 208.748 505.818 248.163 497.392 258.368" stroke="black" stroke-miterlimit="10"/>
<g opacity="0.05">
<path opacity="0.05" d="M599.01 314.699L587.116 274.023C576.214 258.149 565.312 260.627 565.312 260.627C558.869 256.657 554.41 234.334 554.41 234.334C552.426 210.027 507.82 210.526 507.82 210.526C506.651 208.514 504.981 206.84 502.974 205.666C500.966 204.492 498.689 203.859 496.364 203.828C494.259 203.828 492.105 203.895 489.951 204.071C491.168 204.193 492.334 204.366 493.449 204.589L496.917 210.544C496.917 210.544 541.518 210.045 543.501 234.353C543.501 234.353 547.967 256.675 554.41 260.646C554.41 260.646 565.312 258.161 576.214 274.042L588.108 314.717C588.108 314.717 619.33 343.982 609.913 370.737C609.913 370.737 603.555 379.792 577.109 380.888C612.766 382.197 620.815 370.737 620.815 370.737C630.233 343.963 599.01 314.699 599.01 314.699Z" fill="black"/>
<path opacity="0.05" d="M424.556 368.764C414.065 370.654 403.455 371.816 392.804 372.241C405.221 372.716 418.137 371.371 426.46 370.226C425.815 369.733 425.182 369.258 424.556 368.764Z" fill="black"/>
<path opacity="0.05" d="M531.607 376.705C516.35 380.988 500.644 383.472 484.81 384.109C507.655 384.937 529.296 380.169 538.214 377.88C536.061 377.521 533.877 377.113 531.607 376.705Z" fill="black"/>
</g>
<path d="M135.579 454.073C135.579 454.073 149.213 453.653 153.319 450.724C157.426 447.795 174.284 444.3 175.306 448.995C176.328 453.69 195.791 472.347 180.398 472.475C165.006 472.602 144.644 470.075 140.543 467.573C136.443 465.07 135.579 454.073 135.579 454.073Z" fill="#A8A8A8"/>
<path opacity="0.2" d="M180.678 470.837C165.286 470.965 144.917 468.438 140.817 465.965C137.696 464.059 136.449 457.227 136.035 454.079H135.579C135.579 454.079 136.443 465.082 140.543 467.579C144.644 470.076 165.012 472.603 180.399 472.481C184.846 472.444 186.379 470.861 186.294 468.517C185.679 469.929 183.982 470.812 180.678 470.837Z" fill="black"/>
<path d="M467.964 419.852C467.964 419.852 451.909 416.637 447.632 412.35C443.355 408.064 424.087 400.574 421.946 405.926C419.804 411.279 393.054 429.491 411.244 432.719C429.435 435.946 454.05 436.981 459.404 434.862C464.758 432.743 467.964 419.852 467.964 419.852Z" fill="#A8A8A8"/>
<path opacity="0.2" d="M411.244 430.697C429.441 433.906 454.05 434.959 459.404 432.834C463.474 431.202 466.309 423.366 467.429 419.718L467.964 419.834C467.964 419.834 464.752 432.682 459.404 434.825C454.056 436.969 429.441 435.897 411.244 432.682C405.994 431.757 404.491 429.577 405.057 426.824C405.507 428.639 407.339 430.021 411.244 430.697Z" fill="black"/>
<path opacity="0.1" d="M314.231 69.9338H310.411C311.12 69.9338 311.801 69.6515 312.303 69.149C312.805 68.6466 313.087 67.9651 313.087 67.2545C313.087 66.544 312.805 65.8625 312.303 65.36C311.801 64.8576 311.12 64.5753 310.411 64.5753H279.456C278.746 64.5753 278.065 64.8576 277.563 65.36C277.061 65.8625 276.779 66.544 276.779 67.2545C276.779 67.9651 277.061 68.6466 277.563 69.149C278.065 69.6515 278.746 69.9338 279.456 69.9338H283.277C282.589 69.9666 281.941 70.2629 281.467 70.7611C280.992 71.2594 280.727 71.9215 280.727 72.6099C280.727 73.2984 280.992 73.9605 281.467 74.4587C281.941 74.957 282.589 75.2533 283.277 75.2861H277.929C277.219 75.2861 276.538 75.5684 276.036 76.0708C275.534 76.5733 275.252 77.2548 275.252 77.9653C275.252 78.6759 275.534 79.3574 276.036 79.8598C276.538 80.3623 277.219 80.6446 277.929 80.6446H308.883C309.593 80.6446 310.274 80.3623 310.776 79.8598C311.278 79.3574 311.56 78.6759 311.56 77.9653C311.56 77.2548 311.278 76.5733 310.776 76.0708C310.274 75.5684 309.593 75.2861 308.883 75.2861H314.231C314.593 75.3034 314.955 75.247 315.294 75.1203C315.634 74.9936 315.944 74.7993 316.206 74.5491C316.468 74.2988 316.677 73.998 316.819 73.6647C316.962 73.3314 317.036 72.9725 317.036 72.6099C317.036 72.2474 316.962 71.8885 316.819 71.5552C316.677 71.2219 316.468 70.921 316.206 70.6708C315.944 70.4206 315.634 70.2263 315.294 70.0996C314.955 69.9729 314.593 69.9165 314.231 69.9338V69.9338Z" fill="#50C9C3"/>
<path opacity="0.1" d="M434.46 164.2H430.64C431.327 164.167 431.975 163.871 432.45 163.372C432.924 162.874 433.189 162.212 433.189 161.524C433.189 160.835 432.924 160.173 432.45 159.675C431.975 159.176 431.327 158.88 430.64 158.847H399.655C399.293 158.83 398.931 158.887 398.592 159.013C398.252 159.14 397.942 159.334 397.68 159.584C397.418 159.835 397.209 160.136 397.066 160.469C396.924 160.802 396.85 161.161 396.85 161.524C396.85 161.886 396.924 162.245 397.066 162.578C397.209 162.912 397.418 163.212 397.68 163.463C397.942 163.713 398.252 163.907 398.592 164.034C398.931 164.161 399.293 164.217 399.655 164.2H403.475C402.788 164.233 402.14 164.529 401.665 165.027C401.191 165.525 400.926 166.187 400.926 166.876C400.926 167.564 401.191 168.226 401.665 168.725C402.14 169.223 402.788 169.519 403.475 169.552H398.128C397.418 169.552 396.737 169.834 396.235 170.337C395.733 170.839 395.451 171.521 395.451 172.231C395.451 172.942 395.733 173.623 396.235 174.126C396.737 174.628 397.418 174.911 398.128 174.911H429.076C429.786 174.911 430.467 174.628 430.969 174.126C431.471 173.623 431.753 172.942 431.753 172.231C431.753 171.521 431.471 170.839 430.969 170.337C430.467 169.834 429.786 169.552 429.076 169.552H434.46C434.822 169.569 435.184 169.513 435.523 169.386C435.863 169.26 436.173 169.065 436.435 168.815C436.697 168.565 436.906 168.264 437.049 167.931C437.191 167.597 437.265 167.238 437.265 166.876C437.265 166.513 437.191 166.155 437.049 165.821C436.906 165.488 436.697 165.187 436.435 164.937C436.173 164.687 435.863 164.492 435.523 164.366C435.184 164.239 434.822 164.182 434.46 164.2V164.2Z" fill="#50C9C3"/>
<path opacity="0.1" d="M256.307 146.76H252.486C252.848 146.778 253.21 146.721 253.549 146.595C253.889 146.468 254.199 146.274 254.461 146.023C254.723 145.773 254.932 145.472 255.074 145.139C255.217 144.806 255.291 144.447 255.291 144.084C255.291 143.722 255.217 143.363 255.074 143.03C254.932 142.696 254.723 142.395 254.461 142.145C254.199 141.895 253.889 141.701 253.549 141.574C253.21 141.447 252.848 141.391 252.486 141.408H221.525C221.164 141.391 220.802 141.447 220.462 141.574C220.123 141.701 219.813 141.895 219.551 142.145C219.288 142.395 219.08 142.696 218.937 143.03C218.794 143.363 218.721 143.722 218.721 144.084C218.721 144.447 218.794 144.806 218.937 145.139C219.08 145.472 219.288 145.773 219.551 146.023C219.813 146.274 220.123 146.468 220.462 146.595C220.802 146.721 221.164 146.778 221.525 146.76H225.346C224.984 146.743 224.623 146.8 224.283 146.926C223.944 147.053 223.633 147.247 223.371 147.498C223.109 147.748 222.9 148.049 222.758 148.382C222.615 148.715 222.542 149.074 222.542 149.437C222.542 149.799 222.615 150.158 222.758 150.491C222.9 150.825 223.109 151.126 223.371 151.376C223.633 151.626 223.944 151.82 224.283 151.947C224.623 152.074 224.984 152.13 225.346 152.113H219.992C219.282 152.113 218.601 152.395 218.099 152.898C217.597 153.4 217.315 154.081 217.315 154.792C217.315 155.503 217.597 156.184 218.099 156.687C218.601 157.189 219.282 157.471 219.992 157.471H250.947C251.657 157.471 252.338 157.189 252.84 156.687C253.342 156.184 253.624 155.503 253.624 154.792C253.624 154.081 253.342 153.4 252.84 152.898C252.338 152.395 251.657 152.113 250.947 152.113H256.295C256.657 152.13 257.018 152.074 257.358 151.947C257.697 151.82 258.007 151.626 258.269 151.376C258.532 151.126 258.74 150.825 258.883 150.491C259.026 150.158 259.099 149.799 259.099 149.437C259.099 149.074 259.026 148.715 258.883 148.382C258.74 148.049 258.532 147.748 258.269 147.498C258.007 147.247 257.697 147.053 257.358 146.926C257.018 146.8 256.657 146.743 256.295 146.76H256.307Z" fill="#50C9C3"/>
</g>
<defs>
<linearGradient id="paint0_linear_2_4" x1="-441236" y1="39906.5" x2="-476799" y2="39906.5" gradientUnits="userSpaceOnUse">
<stop stop-color="#808080" stop-opacity="0.25"/>
<stop offset="0.54" stop-color="#808080" stop-opacity="0.12"/>
<stop offset="1" stop-color="#808080" stop-opacity="0.1"/>
</linearGradient>
<clipPath id="clip0_2_4">
<rect width="628" height="507" fill="white"/>
</clipPath>
</defs>
</svg>
