<svg width="18" height="18" viewBox="0 0 18 18" fill="none" xmlns="http://www.w3.org/2000/svg">
<g clip-path="url(#clip0_911_373)">
<path d="M14.9541 3.27811C13.8376 2.77457 12.6407 2.40239 11.3892 2.19075C11.378 2.18861 11.3665 2.18999 11.3562 2.1947C11.3458 2.1994 11.3372 2.20721 11.3315 2.21702C11.1783 2.48631 11.0075 2.83733 10.8878 3.11464C9.56042 2.91632 8.21094 2.91632 6.88355 3.11464C6.75024 2.80731 6.59992 2.50764 6.43328 2.21702C6.42763 2.20709 6.41908 2.19911 6.40878 2.19415C6.39848 2.1892 6.38691 2.1875 6.37562 2.18929C5.12479 2.40093 3.92796 2.77311 2.81068 3.27738C2.80107 3.28142 2.79292 3.28829 2.78733 3.29709C0.516273 6.6358 -0.106224 9.89205 0.199551 13.1074C0.200402 13.1153 0.202847 13.1229 0.206736 13.1298C0.210625 13.1367 0.215878 13.1428 0.222174 13.1476C1.54773 14.1126 3.02621 14.8478 4.59571 15.3223C4.60665 15.3257 4.61835 15.3257 4.62929 15.3223C4.64022 15.3189 4.64988 15.3123 4.65701 15.3033C4.99474 14.8516 5.29403 14.3724 5.55171 13.8708C5.55529 13.8639 5.55735 13.8564 5.55775 13.8486C5.55816 13.8409 5.5569 13.8332 5.55407 13.826C5.55123 13.8188 5.54688 13.8123 5.54131 13.8069C5.53574 13.8016 5.52908 13.7975 5.52179 13.7949C5.05036 13.6173 4.59358 13.4031 4.15565 13.1541C4.14778 13.1496 4.14115 13.1433 4.13636 13.1356C4.13156 13.1279 4.12874 13.1191 4.12817 13.1101C4.12759 13.1011 4.12926 13.092 4.13304 13.0838C4.13682 13.0755 4.14258 13.0684 4.14982 13.0629C4.24177 12.995 4.33372 12.9243 4.42129 12.8535C4.42917 12.8471 4.43867 12.8431 4.44872 12.8418C4.45877 12.8405 4.46898 12.842 4.47821 12.8462C7.34403 14.1335 10.4478 14.1335 13.28 12.8462C13.2893 12.8418 13.2996 12.84 13.3098 12.8412C13.32 12.8424 13.3296 12.8464 13.3377 12.8527C13.4252 12.9243 13.5165 12.995 13.6091 13.0629C13.6164 13.0683 13.6223 13.0753 13.6262 13.0835C13.6301 13.0917 13.6319 13.1007 13.6315 13.1097C13.631 13.1187 13.6284 13.1275 13.6237 13.1353C13.6191 13.143 13.6125 13.1495 13.6048 13.1541C13.1684 13.4052 12.7144 13.6175 12.2379 13.7941C12.2306 13.7968 12.2239 13.801 12.2183 13.8064C12.2128 13.8119 12.2084 13.8184 12.2056 13.8257C12.2028 13.8329 12.2015 13.8407 12.2019 13.8485C12.2023 13.8563 12.2044 13.8639 12.208 13.8708C12.4707 14.3721 12.7714 14.8494 13.1019 15.3026C13.1088 15.3119 13.1184 15.3188 13.1294 15.3225C13.1403 15.3262 13.1522 15.3263 13.1632 15.323C14.7354 14.8499 16.2163 14.1144 17.5433 13.1476C17.5498 13.143 17.5553 13.1372 17.5593 13.1304C17.5633 13.1236 17.5658 13.116 17.5667 13.1082C17.9316 9.3907 16.9552 6.16072 14.9767 3.29855C14.9719 3.28925 14.9639 3.282 14.9541 3.27811ZM5.98009 11.1495C5.1175 11.1495 4.40597 10.3693 4.40597 9.41259C4.40597 8.45513 5.10363 7.67573 5.98009 7.67573C6.86311 7.67573 7.56807 8.46169 7.55421 9.41259C7.55421 10.3701 6.85655 11.1495 5.98009 11.1495ZM11.8 11.1495C10.9367 11.1495 10.2259 10.3693 10.2259 9.41259C10.2259 8.45513 10.9228 7.67573 11.8 7.67573C12.6831 7.67573 13.388 8.46169 13.3742 9.41259C13.3742 10.3701 12.6838 11.1495 11.8 11.1495Z" fill="#5F5F5F"/>
</g>
<defs>
<clipPath id="clip0_911_373">
<rect width="17.5146" height="17.5146" fill="white" transform="translate(0.126953)"/>
</clipPath>
</defs>
</svg>
