<svg width="16" height="16" viewBox="0 0 16 16" fill="none" xmlns="http://www.w3.org/2000/svg">
<path fill-rule="evenodd" clip-rule="evenodd" d="M0.945312 8.3593C0.945313 10.1144 1.64253 11.7977 2.8836 13.0387C4.12466 14.2798 5.8079 14.977 7.56303 14.977C9.31816 14.977 11.0014 14.2798 12.2425 13.0387C13.4835 11.7977 14.1807 10.1144 14.1807 8.3593C14.1807 6.60417 13.4835 4.92092 12.2425 3.67986C11.0014 2.4388 9.31816 1.74158 7.56303 1.74158C5.8079 1.74158 4.12466 2.4388 2.8836 3.67986C1.64253 4.92092 0.945313 6.60417 0.945312 8.3593ZM13.0463 8.3593C13.0463 9.81354 12.4686 11.2082 11.4403 12.2365C10.412 13.2648 9.01728 13.8425 7.56303 13.8425C6.10878 13.8425 4.7141 13.2648 3.68579 12.2365C2.65748 11.2082 2.07978 9.81354 2.07978 8.3593C2.07978 6.90505 2.65748 5.51036 3.68579 4.48205C4.7141 3.45374 6.10878 2.87604 7.56303 2.87604C9.01728 2.87604 10.412 3.45374 11.4403 4.48205C12.4686 5.51036 13.0463 6.90505 13.0463 8.3593Z" fill="#5F5F5F"/>
<path fill-rule="evenodd" clip-rule="evenodd" d="M4.72656 8.35931C4.72656 11.7794 5.85422 14.5989 7.56273 14.5989C9.27123 14.5989 10.3989 11.7794 10.3989 8.35931C10.3989 4.93928 9.27123 2.11975 7.56273 2.11975C5.85422 2.11975 4.72656 4.93928 4.72656 8.35931ZM9.26443 8.35931C9.26443 11.2046 8.36064 13.4644 7.56273 13.4644C6.76482 13.4644 5.86103 11.2046 5.86103 8.35931C5.86103 5.51407 6.76482 3.25422 7.56273 3.25422C8.36064 3.25422 9.26443 5.51407 9.26443 8.35931Z" fill="#5F5F5F"/>
<path d="M2.72491 4.93098L3.48575 4.08997C3.56139 4.15803 3.64382 4.2261 3.73156 4.2919C4.69283 5.01191 6.22738 5.45662 7.90261 5.45662C9.33279 5.45662 10.6647 5.13367 11.632 4.58081C11.8649 4.4477 12.0721 4.30325 12.2514 4.14971L12.988 5.01266C12.7419 5.22141 12.4765 5.40628 12.1954 5.56477C11.0489 6.22125 9.52263 6.59033 7.90261 6.59033C5.99519 6.59033 4.22316 6.07755 3.05088 5.19947C2.93815 5.11503 2.82938 5.02544 2.72491 4.93098ZM2.72491 11.7998L3.48575 12.6408C3.56139 12.572 3.64382 12.5047 3.73156 12.4389C4.69283 11.7189 6.22738 11.2742 7.90261 11.2742C9.33279 11.2742 10.6647 11.5971 11.632 12.15C11.8649 12.2831 12.0721 12.4275 12.2514 12.5811L12.988 11.7181C12.7416 11.5098 12.4763 11.3249 12.1954 11.166C11.0489 10.5095 9.52263 10.1405 7.90261 10.1405C5.99519 10.1405 4.22316 10.6532 3.05088 11.5313C2.93815 11.6157 2.82938 11.7053 2.72491 11.7998ZM1.32422 8.92657V7.79211H13.8033V8.92657H1.32422Z" fill="#5F5F5F"/>
</svg>
