<svg width="19" height="18" viewBox="0 0 19 18" fill="none" xmlns="http://www.w3.org/2000/svg">
<path d="M17.8945 3.60286C17.2851 3.87287 16.6305 4.05532 15.9423 4.13778C16.6524 3.7129 17.1836 3.04419 17.4369 2.25643C16.7698 2.65268 16.0396 2.93161 15.2782 3.08107C14.7662 2.53437 14.088 2.17201 13.3489 2.05025C12.6099 1.92848 11.8513 2.05413 11.1909 2.40767C10.5306 2.76122 10.0054 3.32289 9.69702 4.00548C9.3886 4.68806 9.31417 5.45338 9.48528 6.18261C8.13351 6.11473 6.81111 5.76339 5.60392 5.15137C4.39673 4.53935 3.33171 3.68033 2.47799 2.63007C2.18608 3.13361 2.01823 3.71743 2.01823 4.3392C2.01791 4.89893 2.15575 5.45009 2.41952 5.94377C2.68329 6.43746 3.06485 6.8584 3.53032 7.16926C2.99049 7.15208 2.46257 7.00622 1.9905 6.7438V6.78759C1.99045 7.57264 2.262 8.33352 2.75909 8.94115C3.25617 9.54877 3.94817 9.9657 4.71767 10.1212C4.21688 10.2567 3.69185 10.2767 3.18222 10.1796C3.39933 10.8551 3.82223 11.4458 4.39172 11.8689C4.96122 12.2921 5.6488 12.5267 6.3582 12.5397C5.15395 13.485 3.66671 13.9978 2.13573 13.9956C1.86453 13.9956 1.59356 13.9798 1.32422 13.9481C2.87825 14.9473 4.68726 15.4776 6.5348 15.4755C12.789 15.4755 16.2079 10.2956 16.2079 5.80312C16.2079 5.65717 16.2043 5.50975 16.1977 5.3638C16.8628 4.88286 17.4368 4.28731 17.893 3.60505L17.8945 3.60286Z" fill="#5F5F5F"/>
</svg>
